<svg width="18" height="19" viewBox="0 0 18 19" fill="none" xmlns="http://www.w3.org/2000/svg">
<path fill-rule="evenodd" clip-rule="evenodd" d="M1.95157 7.00076C1.95157 5.14404 2.69417 3.36337 4.01601 2.05047C5.33784 0.737578 7.13064 0 9 0C10.8694 0 12.6622 0.737578 13.984 2.05047C15.3058 3.36337 16.0484 5.14404 16.0484 7.00076V10.7652L17.883 14.4096C17.9675 14.5773 18.0074 14.7637 17.9989 14.951C17.9904 15.1384 17.9338 15.3205 17.8346 15.48C17.7353 15.6395 17.5966 15.7712 17.4317 15.8625C17.2667 15.9538 17.081 16.0018 16.8922 16.0017H12.9008C12.6768 16.8601 12.1722 17.6202 11.4662 18.1629C10.7602 18.7056 9.89273 19 9 19C8.10727 19 7.23981 18.7056 6.53379 18.1629C5.82778 17.6202 5.32317 16.8601 5.0992 16.0017H1.10777C0.918955 16.0018 0.733262 15.9538 0.568335 15.8625C0.403407 15.7712 0.264719 15.6395 0.165445 15.48C0.0661697 15.3205 0.0096037 15.1384 0.00111898 14.951C-0.00736574 14.7637 0.0325126 14.5773 0.116966 14.4096L1.95157 10.7652V7.00076ZM7.25602 16.0017C7.43278 16.3058 7.68699 16.5583 7.99313 16.7338C8.29926 16.9093 8.64651 17.0018 9 17.0018C9.35348 17.0018 9.70074 16.9093 10.0069 16.7338C10.313 16.5583 10.5672 16.3058 10.744 16.0017H7.25602ZM9 2.00022C7.66474 2.00022 6.38417 2.52706 5.44001 3.46484C4.49584 4.40262 3.96541 5.67453 3.96541 7.00076V10.7652C3.96539 11.0755 3.89265 11.3816 3.75295 11.6593L2.57485 14.0015H15.4262L14.2481 11.6593C14.108 11.3817 14.0349 11.0756 14.0346 10.7652V7.00076C14.0346 5.67453 13.5042 4.40262 12.56 3.46484C11.6158 2.52706 10.3353 2.00022 9 2.00022Z" fill="white"/>
</svg>
